{"glyphs":{"0":{"ha":852,"x_min":0,"x_max":0,"o":"m 361 -14 b 110 505 147 -14 56 178 b 532 1024 163 830 321 1024 b 785 505 743 1024 839 830 b 361 -14 730 178 573 -14 m 373 69 b 695 505 528 69 649 226 b 520 943 740 778 676 943 b 199 505 366 943 245 784 b 373 69 154 231 217 69 "},"1":{"ha":619,"x_min":0,"x_max":0,"o":"m 361 0 l 269 0 l 420 913 l 414 913 l 151 756 l 168 852 l 433 1010 l 529 1010 "},"2":{"ha":848,"x_min":0,"x_max":0,"o":"m 61 68 l 452 438 b 684 750 605 584 668 655 b 513 943 703 866 631 943 b 268 736 389 943 289 856 l 180 736 b 527 1024 208 904 357 1024 b 771 750 696 1024 797 904 b 489 369 752 638 687 554 l 193 89 l 191 83 l 691 83 l 677 0 l 49 0 "},"3":{"ha":873,"x_min":0,"x_max":0,"o":"m 379 -14 b 91 253 191 -14 69 95 l 183 253 b 381 69 170 143 251 69 b 659 276 519 69 640 152 b 436 477 677 394 597 477 l 376 477 l 389 560 l 446 560 b 706 759 577 560 686 638 b 541 943 724 867 662 943 b 287 758 423 943 306 871 l 197 758 b 544 1024 226 915 377 1024 b 794 752 724 1024 818 899 b 582 523 776 639 693 556 l 582 518 b 748 265 708 493 770 393 b 379 -14 721 98 571 -14 "},"4":{"ha":870,"x_min":0,"x_max":0,"o":"m 73 292 l 643 1010 l 752 1010 l 634 300 l 769 300 l 756 217 l 620 217 l 584 0 l 497 0 l 533 217 l 62 217 m 644 884 l 637 884 l 179 306 l 179 300 l 546 300 "},"5":{"ha":827,"x_min":0,"x_max":0,"o":"m 343 -14 b 88 253 175 -14 68 98 l 178 253 b 355 69 166 146 239 69 b 631 318 490 69 607 175 b 435 569 654 466 570 569 b 242 508 367 569 291 543 l 152 519 l 294 1010 l 793 1010 l 779 927 l 358 927 l 261 589 l 266 589 b 461 653 317 627 388 653 b 720 319 639 653 754 514 b 343 -14 688 128 530 -14 "},"6":{"ha":847,"x_min":0,"x_max":0,"o":"m 371 -14 b 112 468 201 -13 52 111 b 547 1024 166 795 316 1024 b 801 758 709 1024 807 915 l 713 758 b 545 941 715 865 661 941 b 203 497 379 941 251 786 l 209 502 b 481 647 272 590 374 647 b 740 312 653 647 772 505 b 371 -14 709 134 561 -15 m 373 69 b 652 323 507 69 628 183 b 468 564 673 456 596 564 b 189 306 331 564 201 442 b 373 69 177 170 249 69 "},"7":{"ha":782,"x_min":0,"x_max":0,"o":"m 691 921 l 692 927 l 162 927 l 176 1010 l 803 1010 l 788 923 l 176 0 l 78 0 "},"8":{"ha":850,"x_min":0,"x_max":0,"o":"m 365 -14 b 73 271 169 -14 46 110 b 314 523 93 394 196 501 l 314 527 b 191 765 219 556 171 654 b 526 1024 218 914 359 1024 b 785 754 697 1024 810 908 b 578 527 765 643 680 555 l 578 523 b 738 260 689 500 760 388 b 365 -14 712 102 554 -14 m 367 69 b 651 276 514 69 631 156 b 450 482 669 395 585 482 b 164 265 309 482 183 389 b 367 69 145 149 225 69 m 448 561 b 696 760 570 561 677 646 b 525 943 715 870 645 943 b 278 749 400 943 296 862 b 448 561 260 638 332 561 "},"9":{"ha":847,"x_min":0,"x_max":0,"o":"m 519 1024 b 779 544 690 1022 837 901 b 343 -14 725 217 575 -14 b 89 254 182 -14 83 95 l 178 254 b 345 69 176 145 229 69 b 688 515 511 69 639 225 l 681 510 b 409 365 619 422 516 365 b 150 700 237 365 118 507 b 519 1024 182 878 329 1025 m 517 941 b 239 689 384 941 261 830 b 423 448 217 556 294 448 b 702 706 560 448 690 570 b 517 941 714 842 642 941 "},"A":{"ha":911,"x_min":0,"x_max":0,"o":"m -24 0 l 511 1010 l 610 1010 l 809 0 l 713 0 l 655 304 l 232 304 l 73 0 m 640 387 l 545 890 l 538 890 l 275 387 "},"Ä":{"ha":911,"x_min":0,"x_max":0,"o":"m -24 0 l 511 1010 l 610 1010 l 809 0 l 713 0 l 655 304 l 232 304 l 73 0 m 640 387 l 545 890 l 538 890 l 275 387 m 715 1140 b 657 1210 679 1140 651 1172 b 724 1267 663 1242 694 1267 b 783 1197 763 1267 790 1236 b 715 1140 777 1166 749 1140 m 462 1140 b 405 1210 427 1140 400 1173 b 472 1267 410 1242 441 1267 b 530 1197 511 1267 536 1236 b 462 1140 525 1167 497 1140 "},"B":{"ha":899,"x_min":0,"x_max":0,"o":"m 239 1010 l 580 1010 b 831 746 777 1010 858 898 b 635 525 810 619 728 550 l 634 517 b 793 265 730 510 817 418 b 431 0 767 112 648 0 l 71 0 m 444 83 b 704 265 600 83 686 160 b 513 472 723 380 649 472 l 242 472 l 177 83 m 513 554 b 743 746 632 554 726 635 b 566 927 762 853 704 927 l 317 927 l 256 554 "},"C":{"ha":1008,"x_min":0,"x_max":0,"o":"m 884 694 b 621 937 880 833 777 937 b 198 500 428 937 244 782 b 470 73 151 221 281 73 b 822 316 630 73 770 177 l 915 316 b 465 -14 850 130 677 -14 b 110 510 207 -14 57 191 b 627 1024 162 824 374 1024 b 976 694 843 1024 973 880 "},"D":{"ha":996,"x_min":0,"x_max":0,"o":"m 71 0 l 239 1010 l 550 1010 b 928 503 838 1010 981 819 b 369 0 875 187 673 0 m 374 83 b 840 513 633 83 797 248 b 536 927 883 773 783 927 l 317 927 l 177 83 "},"E":{"ha":824,"x_min":0,"x_max":0,"o":"m 239 1010 l 825 1010 l 811 927 l 317 927 l 254 547 l 717 547 l 703 464 l 240 464 l 177 83 l 681 83 l 667 0 l 71 0 "},"F":{"ha":814,"x_min":0,"x_max":0,"o":"m 239 1010 l 823 1010 l 809 927 l 317 927 l 254 547 l 700 547 l 687 464 l 240 464 l 163 0 l 71 0 "},"G":{"ha":1030,"x_min":0,"x_max":0,"o":"m 884 694 b 621 937 871 830 791 937 b 199 505 434 937 246 784 b 472 73 154 232 266 73 b 849 406 654 73 812 201 l 554 406 l 570 489 l 953 489 l 938 406 b 464 -14 896 147 700 -14 b 110 505 199 -14 57 189 b 629 1024 161 821 374 1024 b 979 694 850 1024 976 872 l 884 694 "},"H":{"ha":1026,"x_min":0,"x_max":0,"o":"m 239 1010 l 331 1010 l 254 547 l 827 547 l 904 1010 l 996 1010 l 829 0 l 736 0 l 813 464 l 240 464 l 163 0 l 71 0 "},"I":{"ha":361,"x_min":0,"x_max":0,"o":"m 163 0 l 71 0 l 239 1010 l 331 1010 "},"J":{"ha":743,"x_min":0,"x_max":0,"o":"m 714 1010 l 592 279 b 276 -14 560 81 437 -14 b 37 221 116 -14 14 79 l 125 221 b 279 69 111 129 177 69 b 502 284 388 69 477 138 l 621 1010 "},"K":{"ha":889,"x_min":0,"x_max":0,"o":"m 239 1010 l 331 1010 l 241 466 l 250 466 l 833 1010 l 954 1010 l 446 543 l 785 0 l 672 0 l 378 479 l 218 328 l 163 0 l 71 0 "},"L":{"ha":781,"x_min":0,"x_max":0,"o":"m 239 1010 l 331 1010 l 177 83 l 658 83 l 645 0 l 71 0 "},"M":{"ha":1223,"x_min":0,"x_max":0,"o":"m 345 1010 l 566 130 l 576 130 l 1087 1010 l 1194 1010 l 1026 0 l 939 0 l 1075 815 l 1067 815 l 590 0 l 507 0 l 302 815 l 294 815 l 158 0 l 71 0 l 239 1010 "},"N":{"ha":1055,"x_min":0,"x_max":0,"o":"m 858 0 l 768 0 l 312 846 l 304 846 l 163 0 l 71 0 l 239 1010 l 328 1010 l 786 163 l 794 163 l 935 1010 l 1025 1010 "},"O":{"ha":1051,"x_min":0,"x_max":0,"o":"m 982 500 b 466 -14 930 186 718 -14 b 110 510 206 -14 58 192 b 628 1024 163 824 374 1024 b 982 500 884 1024 1035 819 m 894 510 b 625 937 939 781 820 937 b 198 500 422 937 244 774 b 468 73 153 230 271 73 b 894 510 671 73 849 236 "},"Ö":{"ha":1051,"x_min":0,"x_max":0,"o":"m 982 500 b 466 -14 930 186 718 -14 b 110 510 206 -14 58 192 b 628 1024 163 824 374 1024 b 982 500 884 1024 1035 819 m 894 510 b 625 937 939 781 820 937 b 198 500 422 937 244 774 b 468 73 153 230 271 73 b 894 510 671 73 849 236 m 782 1140 b 725 1210 746 1140 718 1172 b 791 1267 730 1242 761 1267 b 850 1197 831 1267 857 1236 b 782 1140 844 1166 816 1140 m 529 1140 b 472 1210 494 1140 467 1173 b 539 1267 477 1242 509 1267 b 597 1197 578 1267 603 1236 b 529 1140 592 1167 564 1140 "},"P":{"ha":868,"x_min":0,"x_max":0,"o":"m 239 1010 l 565 1010 b 838 698 779 1010 868 876 b 462 386 809 523 675 386 l 227 386 l 163 0 l 71 0 m 473 469 b 748 698 632 469 726 567 b 548 927 769 832 708 927 l 317 927 l 241 469 "},"Q":{"ha":1064,"x_min":0,"x_max":0,"o":"m 982 500 b 759 90 952 321 871 179 l 898 -95 l 796 -95 l 691 44 b 466 -14 623 6 546 -14 b 110 510 206 -14 58 192 b 628 1024 163 824 374 1024 b 982 500 884 1024 1035 819 m 588 316 l 707 159 b 894 510 799 234 869 354 b 625 937 939 781 820 937 b 198 500 422 937 244 774 b 468 73 153 230 271 73 b 639 114 528 73 586 87 l 486 316 "},"R":{"ha":876,"x_min":0,"x_max":0,"o":"m 239 1010 l 565 1010 b 840 708 779 1010 870 885 b 602 428 818 574 735 470 l 765 0 l 659 0 l 506 410 b 466 408 493 409 480 408 l 231 408 l 163 0 l 71 0 m 478 493 b 750 708 637 493 728 576 b 548 927 771 841 708 927 l 317 927 l 245 493 "},"S":{"ha":874,"x_min":0,"x_max":0,"o":"m 744 752 b 535 942 749 871 669 942 b 266 754 395 942 284 862 b 436 570 248 647 344 597 l 539 539 b 767 268 660 503 796 436 b 370 -17 740 105 592 -17 b 67 253 164 -17 52 93 l 162 253 b 384 67 151 133 248 67 b 678 270 536 67 658 148 b 498 457 696 373 618 421 l 382 493 b 175 750 232 539 154 620 b 551 1024 203 914 364 1024 b 834 752 739 1024 851 911 l 744 752 "},"T":{"ha":878,"x_min":0,"x_max":0,"o":"m 178 1010 l 910 1010 l 896 927 l 576 927 l 422 0 l 330 0 l 484 927 l 164 927 "},"U":{"ha":1034,"x_min":0,"x_max":0,"o":"m 1004 1010 l 894 341 b 451 -17 859 135 679 -17 b 128 341 224 -17 94 135 l 239 1010 l 331 1010 l 221 348 b 464 70 195 187 289 70 b 802 348 640 70 776 187 l 912 1010 "},"Ü":{"ha":1034,"x_min":0,"x_max":0,"o":"m 1004 1010 l 894 341 b 451 -17 859 135 679 -17 b 128 341 224 -17 94 135 l 239 1010 l 331 1010 l 221 348 b 464 70 195 187 289 70 b 802 348 640 70 776 187 l 912 1010 m 775 1140 b 718 1210 740 1140 712 1172 b 785 1267 724 1242 755 1267 b 843 1197 824 1267 850 1236 b 775 1140 838 1166 810 1140 m 523 1140 b 466 1210 487 1140 460 1173 b 532 1267 471 1242 502 1267 b 591 1197 572 1267 597 1236 b 523 1140 586 1167 557 1140 "},"V":{"ha":911,"x_min":0,"x_max":0,"o":"m 408 120 l 418 120 l 880 1010 l 977 1010 l 442 0 l 343 0 l 144 1010 l 240 1010 "},"W":{"ha":1292,"x_min":0,"x_max":0,"o":"m 138 1010 l 231 1010 l 316 142 l 324 142 l 697 1010 l 803 1010 l 888 142 l 896 142 l 1269 1010 l 1364 1010 l 919 0 l 820 0 l 728 857 l 722 857 l 345 0 l 247 0 "},"X":{"ha":866,"x_min":0,"x_max":0,"o":"m 461 572 l 468 572 l 819 1010 l 929 1010 l 521 505 l 762 0 l 654 0 l 446 434 l 440 434 l 88 0 l -22 0 l 393 505 l 145 1010 l 254 1010 "},"Y":{"ha":900,"x_min":0,"x_max":0,"o":"m 249 1010 l 470 531 l 479 531 l 858 1010 l 965 1010 l 505 437 l 433 0 l 341 0 l 413 437 l 144 1010 "},"Z":{"ha":859,"x_min":0,"x_max":0,"o":"m 43 70 l 745 927 l 183 927 l 196 1010 l 870 1010 l 859 941 l 155 83 l 721 83 l 707 0 l 31 0 "},"a":{"ha":773,"x_min":0,"x_max":0,"o":"m 262 -17 b 50 212 125 -17 27 66 b 378 431 75 362 203 410 b 588 505 507 446 579 448 l 591 522 b 445 689 608 625 560 689 b 215 568 336 689 253 633 l 137 598 b 452 768 208 722 336 768 b 678 514 568 768 712 718 l 592 0 l 505 0 l 525 120 l 519 120 b 262 -17 477 53 389 -17 m 285 63 b 552 291 425 63 532 166 l 571 400 b 366 354 541 375 428 361 b 138 208 235 338 153 299 b 285 63 123 116 185 63 "},"ä":{"ha":773,"x_min":0,"x_max":0,"o":"m 262 -17 b 50 212 125 -17 27 66 b 378 431 75 362 203 410 b 588 505 507 446 579 448 l 591 522 b 445 689 608 625 560 689 b 215 568 336 689 253 633 l 137 598 b 452 768 208 722 336 768 b 678 514 568 768 712 718 l 592 0 l 505 0 l 525 120 l 519 120 b 262 -17 477 53 389 -17 m 285 63 b 552 291 425 63 532 166 l 571 400 b 366 354 541 375 428 361 b 138 208 235 338 153 299 b 285 63 123 116 185 63 m 610 888 b 553 957 575 888 546 920 b 619 1014 559 990 589 1014 b 678 945 659 1014 685 983 b 610 888 673 914 645 888 m 358 888 b 300 957 322 888 295 921 b 367 1014 305 990 337 1014 b 426 945 406 1014 432 984 b 358 888 421 915 392 888 "},"b":{"ha":852,"x_min":0,"x_max":0,"o":"m 239 1010 l 327 1010 l 262 613 l 270 613 b 527 768 310 681 388 768 b 775 377 714 768 813 610 b 398 -16 736 142 584 -16 b 191 141 260 -16 211 71 l 180 141 l 156 0 l 71 0 m 221 378 b 399 65 191 195 252 65 b 687 378 550 65 657 202 b 506 688 715 553 657 688 b 221 378 358 688 251 560 "},"c":{"ha":773,"x_min":0,"x_max":0,"o":"m 347 -16 b 77 375 142 -16 39 150 b 475 768 114 604 277 768 b 726 533 627 768 728 673 l 637 533 b 465 688 633 620 573 688 b 165 378 318 688 195 562 b 359 65 134 194 210 65 b 586 221 460 65 549 125 l 675 221 b 347 -16 631 83 504 -16 "},"ç":{"ha":773,"x_min":0,"x_max":0,"o":"m 370 -36 b 454 -151 427 -44 467 -79 b 250 -282 440 -231 369 -281 l 258 -220 b 373 -154 323 -219 366 -200 b 277 -83 382 -105 352 -87 l 304 -13 b 77 375 128 8 42 166 b 475 768 114 604 277 768 b 726 533 627 768 728 673 l 637 533 b 465 688 633 620 573 688 b 165 378 318 688 195 562 b 359 65 134 194 210 65 b 586 221 460 65 549 125 l 675 221 b 379 -14 634 93 521 -2 "},"d":{"ha":852,"x_min":0,"x_max":0,"o":"m 324 -16 b 76 377 138 -16 38 142 b 455 768 116 610 268 768 b 660 613 594 768 642 681 l 668 613 l 734 1010 l 823 1010 l 655 0 l 570 0 l 593 141 l 582 141 b 324 -16 540 72 462 -16 m 343 65 b 631 378 490 65 601 195 b 449 688 661 560 598 688 b 165 378 298 688 194 553 b 343 65 136 202 192 65 "},"e":{"ha":807,"x_min":0,"x_max":0,"o":"m 357 -16 b 77 374 145 -16 38 145 b 474 768 115 604 278 768 b 732 396 638 768 775 649 l 726 353 l 161 353 b 369 65 131 163 209 65 b 596 189 478 65 556 121 l 675 162 b 357 -16 624 67 509 -16 m 649 430 b 462 688 673 576 598 688 b 174 430 328 688 205 565 "},"f":{"ha":487,"x_min":0,"x_max":0,"o":"m 478 681 l 309 681 l 196 0 l 109 0 l 222 681 l 106 681 l 118 758 l 235 758 l 253 869 b 484 1057 272 991 380 1057 b 574 1040 530 1057 558 1048 l 537 963 b 478 974 523 967 507 974 b 337 850 402 974 351 930 l 322 758 l 491 758 "},"g":{"ha":835,"x_min":0,"x_max":0,"o":"m 294 -300 b 22 -148 139 -300 53 -234 l 102 -101 b 304 -221 124 -159 173 -221 b 566 -14 437 -221 542 -155 l 592 156 l 584 156 b 328 8 544 87 464 8 b 78 381 146 8 39 148 b 455 768 116 611 268 768 b 662 613 594 768 643 681 l 671 613 l 695 758 l 781 758 l 653 -20 b 294 -300 620 -213 473 -300 m 348 88 b 632 382 493 88 602 199 b 449 688 661 560 597 688 b 166 382 296 688 195 553 b 348 88 138 209 197 88 "},"h":{"ha":810,"x_min":0,"x_max":0,"o":"m 141 0 l 53 0 l 220 1010 l 308 1010 l 247 639 l 255 639 b 501 767 302 718 386 767 b 714 491 654 767 743 671 l 631 0 l 543 0 l 624 485 b 466 687 645 610 583 687 b 219 473 345 687 242 606 "},"i":{"ha":322,"x_min":0,"x_max":0,"o":"m 180 758 l 268 758 l 142 0 l 54 0 m 256 889 b 191 954 219 889 190 918 b 257 1016 192 987 222 1016 b 323 951 294 1016 324 986 b 256 889 322 917 291 889 "},"j":{"ha":322,"x_min":0,"x_max":0,"o":"m 268 758 l 131 -73 b -108 -284 109 -203 20 -284 b -128 -284 -114 -284 -121 -284 l -114 -201 l -95 -201 b 43 -73 -23 -201 29 -154 l 180 758 m 254 888 b 188 952 217 888 187 917 b 255 1014 189 986 219 1014 b 320 949 291 1014 321 985 b 254 888 319 916 289 888 "},"k":{"ha":729,"x_min":0,"x_max":0,"o":"m 220 1010 l 308 1010 l 207 402 l 218 402 l 631 758 l 744 758 l 365 432 l 637 0 l 526 0 l 291 375 l 189 293 l 141 0 l 53 0 "},"l":{"ha":320,"x_min":0,"x_max":0,"o":"m 141 0 l 53 0 l 220 1010 l 308 1010 "},"m":{"ha":1192,"x_min":0,"x_max":0,"o":"m 179 758 l 264 758 l 245 641 l 253 641 b 477 767 296 720 378 767 b 659 630 581 767 639 716 l 665 630 b 913 767 713 714 802 767 b 1097 508 1053 767 1126 677 l 1013 0 l 925 0 l 1010 508 b 874 687 1028 627 974 687 b 661 499 758 687 679 608 l 578 0 l 488 0 l 574 515 b 440 687 590 618 544 687 b 221 485 335 687 241 603 l 141 0 l 53 0 "},"n":{"ha":805,"x_min":0,"x_max":0,"o":"m 141 0 l 53 0 l 179 758 l 264 758 l 245 639 l 253 639 b 497 767 300 716 386 767 b 708 491 649 767 738 670 l 626 0 l 538 0 l 619 485 b 462 687 639 609 580 687 b 219 473 343 687 242 606 "},"o":{"ha":821,"x_min":0,"x_max":0,"o":"m 351 -16 b 77 382 151 -16 39 147 b 468 768 115 611 275 768 b 742 369 668 768 779 604 b 351 -16 704 142 544 -16 m 352 65 b 656 382 512 65 628 208 b 468 688 683 548 621 688 b 163 369 307 688 191 542 b 352 65 135 203 198 65 "},"ö":{"ha":821,"x_min":0,"x_max":0,"o":"m 351 -16 b 77 382 151 -16 39 147 b 468 768 115 611 275 768 b 742 369 668 768 779 604 b 351 -16 704 142 544 -16 m 352 65 b 656 382 512 65 628 208 b 468 688 683 548 621 688 b 163 369 307 688 191 542 b 352 65 135 203 198 65 m 626 888 b 569 957 591 888 563 920 b 636 1014 575 990 606 1014 b 694 945 675 1014 701 983 b 626 888 689 914 661 888 m 374 888 b 317 957 338 888 311 921 b 383 1014 322 990 353 1014 b 442 945 423 1014 448 984 b 374 888 437 915 408 888 "},"p":{"ha":834,"x_min":0,"x_max":0,"o":"m 180 758 l 265 758 l 242 613 l 252 613 b 509 768 293 681 369 768 b 757 377 696 768 796 611 b 380 -16 718 142 565 -16 b 173 141 243 -16 192 71 l 165 141 l 94 -284 l 5 -284 m 204 378 b 382 65 174 195 235 65 b 669 378 532 65 639 202 b 488 688 697 553 640 688 b 204 378 340 688 233 560 "},"q":{"ha":833,"x_min":0,"x_max":0,"o":"m 589 141 l 581 141 b 323 -16 539 71 460 -16 b 76 377 137 -16 37 142 b 453 768 114 611 266 768 b 659 613 592 768 640 681 l 669 613 l 694 758 l 780 758 l 607 -284 l 519 -284 m 346 65 b 630 378 493 65 599 195 b 449 688 659 560 598 688 b 164 378 297 688 193 553 b 346 65 135 202 196 65 "},"r":{"ha":497,"x_min":0,"x_max":0,"o":"m 179 758 l 264 758 l 245 641 l 251 641 b 480 769 293 718 385 769 b 526 767 495 769 514 769 l 511 678 b 458 683 503 679 482 683 b 221 489 340 683 241 602 l 141 0 l 53 0 "},"s":{"ha":712,"x_min":0,"x_max":0,"o":"m 576 570 b 421 690 563 638 523 690 b 223 558 318 690 235 635 b 339 433 212 494 249 456 l 449 404 b 607 203 572 373 624 305 b 290 -16 586 75 457 -16 b 46 180 141 -16 52 53 l 134 199 b 299 63 140 110 197 63 b 515 202 416 63 503 123 b 412 324 526 263 493 304 l 294 354 b 134 557 168 386 116 455 b 432 768 154 682 280 768 b 660 591 572 768 641 701 "},"t":{"ha":498,"x_min":0,"x_max":0,"o":"m 465 681 l 304 681 l 223 198 b 318 74 208 103 258 74 b 370 81 341 74 357 78 l 377 2 b 295 -11 358 -4 332 -11 b 133 177 199 -11 112 53 l 216 681 l 103 681 l 116 758 l 228 758 l 258 939 l 347 939 l 317 758 l 477 758 "},"u":{"ha":801,"x_min":0,"x_max":0,"o":"m 660 758 l 748 758 l 622 0 l 534 0 l 555 126 l 548 126 b 300 -10 501 48 411 -10 b 97 267 154 -10 67 87 l 179 758 l 267 758 l 186 272 b 340 75 167 154 231 75 b 582 290 442 75 559 150 "},"ü":{"ha":801,"x_min":0,"x_max":0,"o":"m 660 758 l 748 758 l 622 0 l 534 0 l 555 126 l 548 126 b 300 -10 501 48 411 -10 b 97 267 154 -10 67 87 l 179 758 l 267 758 l 186 272 b 340 75 167 154 231 75 b 582 290 442 75 559 150 m 617 888 b 559 957 581 888 553 920 b 626 1014 565 990 596 1014 b 685 945 665 1014 691 983 b 617 888 679 914 651 888 m 364 888 b 307 957 328 888 301 921 b 373 1014 312 990 343 1014 b 432 945 413 1014 438 984 b 364 888 427 915 399 888 "},"v":{"ha":758,"x_min":0,"x_max":0,"o":"m 363 0 l 269 0 l 118 758 l 210 758 l 328 116 l 334 116 l 666 758 l 765 758 "},"w":{"ha":1118,"x_min":0,"x_max":0,"o":"m 118 758 l 211 758 l 286 133 l 292 133 l 576 758 l 669 758 l 742 134 l 749 134 l 1032 758 l 1126 758 l 771 0 l 680 0 l 603 620 l 594 620 l 312 0 l 221 0 "},"x":{"ha":731,"x_min":0,"x_max":0,"o":"m 374 435 l 624 758 l 727 758 l 419 377 l 599 0 l 498 0 l 355 312 l 108 0 l 4 0 l 309 379 l 132 758 l 232 758 "},"y":{"ha":758,"x_min":0,"x_max":0,"o":"m 68 -284 b -15 -268 33 -284 1 -277 l 22 -191 b 227 -81 105 -219 165 -195 l 268 -4 l 118 758 l 210 758 l 328 114 l 334 114 l 666 758 l 765 758 l 299 -119 b 68 -284 239 -232 159 -284 "},"z":{"ha":736,"x_min":0,"x_max":0,"o":"m 41 70 l 578 668 l 579 675 l 160 675 l 174 758 l 706 758 l 694 685 l 166 89 l 165 83 l 610 83 l 596 0 l 29 0 "},"$":{"ha":874,"x_min":0,"x_max":0,"o":"m 340 -16 b 67 253 153 -6 53 101 l 162 253 b 354 68 152 142 234 77 l 423 480 l 382 493 b 175 750 232 539 154 620 b 512 1023 201 903 342 1009 l 531 1136 l 596 1136 l 577 1023 b 834 752 750 1014 850 904 l 744 752 b 563 941 748 862 680 931 l 499 551 l 539 539 b 767 268 660 503 796 436 b 405 -16 741 113 607 -4 l 387 -126 l 322 -126 m 419 69 b 678 270 554 80 660 158 b 498 457 696 373 618 421 l 484 462 l 419 69 m 499 940 b 266 754 376 927 282 853 b 436 570 248 647 344 597 l 437 570 "},"£":{"ha":876,"x_min":0,"x_max":0,"o":"m 34 0 l 48 83 l 91 83 b 199 250 154 83 189 180 l 219 402 l 98 402 l 113 487 l 231 487 l 262 718 b 600 1024 288 916 444 1024 b 821 741 775 1024 879 886 l 738 765 b 590 941 772 871 694 941 b 349 718 481 941 373 864 l 318 487 l 562 487 l 546 402 l 307 402 l 287 250 b 216 83 278 181 256 120 l 699 83 l 685 0 "},"€":{"ha":932,"x_min":0,"x_max":0,"o":"m 714 570 l 282 570 b 269 505 277 549 273 527 b 261 440 265 483 262 461 l 636 440 l 588 364 l 259 364 b 520 73 268 180 368 73 b 763 166 610 73 694 110 l 787 87 b 507 -14 708 21 608 -14 b 169 364 303 -14 173 131 l 37 364 l 78 440 l 171 440 b 180 505 173 462 176 483 b 192 570 183 527 187 548 l 72 570 l 112 646 l 215 646 b 679 1024 296 879 474 1024 b 927 918 783 1024 869 986 l 879 840 b 667 937 825 901 756 937 b 306 646 515 937 377 831 l 761 646 "},"&":{"ha":862,"x_min":0,"x_max":0,"o":"m 321 -14 b 58 263 135 -14 31 105 b 303 541 76 377 162 452 l 313 547 b 224 798 251 642 210 709 b 496 1021 246 927 359 1021 b 691 812 636 1021 710 927 b 516 587 676 721 617 654 l 434 533 l 628 230 b 711 417 666 283 695 345 l 796 416 b 672 162 771 288 716 212 l 776 0 l 669 0 l 607 96 b 321 -14 529 25 418 -14 m 357 481 l 311 450 b 147 263 197 375 154 308 b 330 65 130 156 202 64 b 565 161 413 66 496 100 m 467 650 b 601 812 545 699 590 742 b 488 944 612 880 569 944 b 313 797 404 944 325 871 b 390 601 303 735 340 677 b 391 599 390 600 391 600 "},"!":{"ha":379,"x_min":0,"x_max":0,"o":"m 218 290 l 131 290 l 244 1010 l 344 1010 m 136 -7 b 67 64 96 -7 67 24 b 139 134 67 103 100 134 b 209 64 178 134 210 102 b 136 -7 207 24 175 -7 "},"?":{"ha":691,"x_min":0,"x_max":0,"o":"m 259 320 b 451 591 286 474 345 530 b 594 768 529 638 582 686 b 439 945 610 875 543 945 b 215 758 339 945 239 877 l 122 758 b 450 1024 154 920 292 1024 b 683 764 615 1024 707 912 b 504 533 666 657 607 593 b 349 320 406 476 367 427 l 343 290 l 254 290 m 263 -7 b 193 64 223 -7 193 24 b 266 134 193 103 227 134 b 335 64 304 134 337 102 b 263 -7 334 24 302 -7 "},"(":{"ha":481,"x_min":0,"x_max":0,"o":"m 160 426 b 438 1057 200 663 296 873 l 518 1057 b 251 426 397 903 290 653 b 309 -205 213 199 239 -51 l 229 -205 b 160 426 148 -20 121 190 "},")":{"ha":481,"x_min":0,"x_max":0,"o":"m 337 426 b 59 -205 297 189 201 -21 l -21 -205 b 246 426 101 -51 208 199 b 188 1057 284 654 258 903 l 268 1057 b 337 426 349 872 376 662 "},"[":{"ha":481,"x_min":0,"x_max":0,"o":"m 280 1057 l 532 1057 l 519 982 l 351 982 l 167 -130 l 335 -130 l 323 -205 l 71 -205 "},"]":{"ha":481,"x_min":0,"x_max":0,"o":"m 218 -205 l -35 -205 l -22 -130 l 146 -130 l 330 982 l 162 982 l 174 1057 l 427 1057 "},"{":{"ha":481,"x_min":0,"x_max":0,"o":"m 346 -205 b 156 41 176 -205 128 -128 l 187 233 b 65 381 205 343 176 381 l 63 381 l 77 471 l 79 471 b 253 619 191 471 234 509 l 284 811 b 555 1057 311 980 385 1057 l 543 982 b 365 811 432 982 384 931 l 329 593 b 185 431 316 509 281 453 l 183 422 b 274 259 272 400 287 343 l 237 41 b 359 -130 217 -78 247 -130 l 346 -205 "},"}":{"ha":481,"x_min":0,"x_max":0,"o":"m 151 1057 b 341 811 321 1057 369 980 l 310 619 b 432 471 292 509 321 471 l 434 471 l 420 381 l 418 381 b 245 233 306 381 263 343 l 214 41 b -58 -205 186 -128 112 -205 l -45 -130 b 132 41 65 -130 113 -78 l 168 259 b 312 422 182 344 216 400 l 314 431 b 223 593 225 453 210 509 l 260 811 b 139 982 280 931 250 982 l 151 1057 "},"#":{"ha":877,"x_min":0,"x_max":0,"o":"m 560 291 l 281 291 l 228 0 l 152 0 l 205 291 l 43 291 l 57 367 l 218 367 l 269 643 l 108 643 l 122 719 l 283 719 l 335 1010 l 412 1010 l 359 719 l 638 719 l 690 1010 l 767 1010 l 714 719 l 875 719 l 862 643 l 700 643 l 650 367 l 811 367 l 797 291 l 636 291 l 583 0 l 507 0 m 574 367 l 624 643 l 345 643 l 295 367 "},"/":{"ha":480,"x_min":0,"x_max":0,"o":"m 31 -152 l -51 -152 l 473 1057 l 556 1057 "},"\\":{"ha":477,"x_min":0,"x_max":0,"o":"m 148 1057 l 228 1057 l 353 -152 l 274 -152 "},"-":{"ha":629,"x_min":0,"x_max":0,"o":"m 527 392 l 107 392 l 120 474 l 541 474 "},"'":{"ha":300,"x_min":0,"x_max":0,"o":"m 239 673 l 156 673 l 213 1010 l 295 1010 "},"\"":{"ha":531,"x_min":0,"x_max":0,"o":"m 239 673 l 156 673 l 213 1010 l 295 1010 m 471 673 l 388 673 l 444 1010 l 527 1010 "},",":{"ha":378,"x_min":0,"x_max":0,"o":"m 202 85 b 65 -247 166 -21 99 -177 l -2 -247 b 108 83 20 -180 69 -51 l 125 138 l 220 138 "},".":{"ha":372,"x_min":0,"x_max":0,"o":"m 133 -7 b 63 64 93 -7 63 24 b 136 134 63 103 97 134 b 205 64 174 134 207 102 b 133 -7 204 24 172 -7 "},":":{"ha":372,"x_min":0,"x_max":0,"o":"m 227 565 b 158 636 187 565 158 597 b 230 706 158 676 191 706 b 300 636 269 706 301 675 b 227 565 298 597 266 565 m 137 19 b 67 90 97 19 67 50 b 140 160 67 129 101 160 b 209 90 178 160 211 128 b 137 19 208 50 176 19 "},";":{"ha":379,"x_min":0,"x_max":0,"o":"m 202 85 b 65 -247 166 -21 99 -177 l -2 -247 b 108 83 20 -180 69 -51 l 125 138 l 220 138 m 231 565 b 162 636 191 565 162 597 b 234 706 162 676 195 706 b 304 636 273 706 305 675 b 231 565 302 597 270 565 "},"<":{"ha":905,"x_min":0,"x_max":0,"o":"m 158 426 l 817 759 l 801 662 l 266 397 l 265 391 l 713 127 l 696 30 l 147 363 "},">":{"ha":905,"x_min":0,"x_max":0,"o":"m 109 30 l 126 127 l 660 392 l 660 398 l 215 662 l 229 759 l 779 426 l 767 363 "},"=":{"ha":905,"x_min":0,"x_max":0,"o":"m 158 294 l 720 294 l 706 213 l 144 213 m 205 577 l 766 577 l 752 495 l 191 495 "},"+":{"ha":905,"x_min":0,"x_max":0,"o":"m 405 353 l 136 353 l 150 436 l 420 436 l 464 707 l 549 707 l 505 436 l 775 436 l 760 353 l 490 353 l 446 82 l 361 82 "},"~":{"ha":905,"x_min":0,"x_max":0,"o":"m 108 310 b 327 507 134 448 227 507 b 491 427 395 507 437 477 b 596 372 531 391 556 372 b 722 488 657 372 705 414 l 803 485 b 587 294 776 349 684 294 b 430 373 523 294 482 324 b 318 426 390 410 361 426 b 189 309 256 426 205 388 l 108 310 "},"_":{"ha":616,"x_min":0,"x_max":0,"o":"m 542 -83 l -79 -83 l -66 0 l 555 0 "},"^":{"ha":619,"x_min":0,"x_max":0,"o":"m 360 979 l 457 979 l 590 552 l 503 552 l 400 892 l 396 892 l 181 552 l 87 552 "},"*":{"ha":694,"x_min":0,"x_max":0,"o":"m 365 672 l 150 552 l 122 616 l 343 727 l 158 836 l 204 900 l 382 779 l 415 1010 l 489 1010 l 445 780 l 659 900 l 688 836 l 468 726 l 653 616 l 606 552 l 428 673 l 394 442 l 320 442 "},"°":{"ha":631,"x_min":0,"x_max":0,"o":"m 385 581 b 165 800 264 581 165 679 b 385 1020 165 922 264 1020 b 605 800 507 1020 605 922 b 385 581 605 679 507 581 m 385 657 b 528 800 465 657 528 721 b 385 944 528 880 465 944 b 242 800 306 944 242 880 b 385 657 242 721 306 657 "},"§":{"ha":756,"x_min":0,"x_max":0,"o":"m 596 783 b 471 945 609 877 567 945 b 300 815 376 945 313 881 b 397 660 290 753 337 700 l 538 569 b 672 344 618 515 690 451 b 494 175 659 266 580 191 l 494 173 b 556 1 551 123 567 66 b 278 -205 534 -133 410 -205 b 54 38 126 -205 33 -110 l 141 38 b 289 -125 127 -66 188 -125 b 471 3 378 -125 458 -77 b 371 158 482 73 439 114 l 227 251 b 94 479 148 301 76 368 b 274 647 107 557 182 633 l 274 651 b 216 817 228 694 205 750 b 482 1024 236 936 348 1024 b 681 783 625 1024 702 925 m 589 345 b 485 500 599 404 560 451 l 338 595 b 177 477 277 615 191 560 b 280 320 166 412 208 367 l 422 229 b 589 345 482 210 577 264 "},"%":{"ha":1110,"x_min":0,"x_max":0,"o":"m 188 823 b 408 1024 205 936 292 1024 b 560 823 525 1024 577 936 l 553 777 b 334 576 536 663 450 576 b 181 777 218 576 163 663 m 600 233 b 820 435 620 346 704 435 b 972 233 937 435 992 346 l 964 187 b 745 -14 944 74 861 -14 b 592 187 629 -14 572 74 m 941 1010 l 1033 1010 l 201 0 l 109 0 m 258 777 b 345 643 246 702 273 643 b 475 777 416 643 463 702 l 483 823 b 397 957 494 897 470 957 b 266 823 326 957 277 897 m 669 187 b 756 53 656 113 683 53 b 886 187 827 53 873 113 l 894 233 b 809 367 908 308 881 367 b 677 233 738 367 691 308 "},"`":{"ha":690,"x_min":0,"x_max":0,"o":"m 346 1087 l 449 1087 l 537 863 l 459 863 "}}}
